# xmcd CD database file
#
# Track frame offsets:
#	150
#	11407
#	29752
#	52440
#	75497
#	95905
#	114327
#	132792
#	143807
#	162917
#	176120
#	197452
#
# Disc length: 2873 seconds
#
# Revision: 2
# Processed by: cddbd v1.5.2PL0 Copyright (c) Steve Scherf et al.
# Submitted via: CDex 1.70beta2
#
DISCID=a40b370c
DTITLE=Webb Wilder - Acres Of Suede
DYEAR=1995
DGENRE=Rock and Roll
TTITLE0=The Olde Elephant Man
TTITLE1=No Great Shakes
TTITLE2=Loud Music
TTITLE3=Fall In Place
TTITLE4=Flat Out Get It
TTITLE5=Soul Mate
TTITLE6=Scattered, Smothered And Covered
TTITLE7=Tell Me Why Charlene
TTITLE8=Why Do You Call?
TTITLE9=Carryin' The News To Mary
TTITLE10=Lost In The Shuffle
TTITLE11=Rocket To Nowhere
EXTD=YEAR: 1995
EXTT0=
EXTT1=
EXTT2=
EXTT3=
EXTT4=
EXTT5=
EXTT6=
EXTT7=
EXTT8=
EXTT9=
EXTT10=
EXTT11=
PLAYORDER=
